<svg width="30" height="30" viewBox="0 0 30 30" fill="none" xmlns="http://www.w3.org/2000/svg">
<path d="M15.0001 21.7999C12.1903 23.2051 9.88189 21.6953 9.34065 21.2887C7.51152 19.8928 6.26214 17.7814 6.01671 15.3741C5.96476 14.9638 5.97235 14.4998 5.97235 14.4998C5.97235 9.77783 9.81734 5.95002 14.5602 5.95002C19.303 5.95002 23.1479 9.77783 23.1479 14.4998C21.5308 13.3687 19.3242 13.1781 17.4138 13.636C16.7574 13.783 16.0976 14.0318 15.4745 14.2813C13.5455 14.9784 11.4521 15.7853 9.3586 15.3825C8.66858 15.2382 8.04587 14.9201 7.43921 14.6005C9.54241 15.7255 11.239 15.464 13.4138 14.7144C14.0631 14.4899 14.7008 14.234 15.3306 13.9606C17.3889 12.945 19.9573 12.4846 22.2035 13.2587C18.0769 8.62297 12.7671 12.2922 8.39485 13.8833C8.23796 13.9357 6.99755 14.3213 6.45095 13.6168C6.45095 13.6168 6.39037 13.9823 6.52551 14.4199C7.17411 16.9379 9.46974 17.6611 9.91693 17.7793C10.3736 17.8867 10.8758 17.9646 11.4306 17.9974C13.3589 18.0807 15.3662 17.352 17.3044 16.536C17.3044 16.536 17.3073 16.5348 17.3116 16.5331C17.323 16.5283 17.3344 16.5236 17.3456 16.5188C17.4725 16.4661 17.8867 16.3006 18.429 16.1482C18.429 16.1482 23.9476 14.2807 27.4481 18.7062C27.8837 17.3824 28.1201 15.9688 28.1201 14.4998C28.12 7.04422 22.0491 1 14.56 1C7.0709 1 1 7.04422 1 14.5C1 21.9558 7.07107 28 14.56 28C19.2576 28 23.3956 25.6207 25.829 22.0077C25.8297 22.0077 25.8302 22.0077 25.8309 22.0077C27.2168 20.1452 29 20.4495 29 20.4495C24.061 15.5667 18.2189 20.1903 15.0001 21.7999Z" fill="#034EA1"></path>
<path d="M15.0001 21.7999C12.1903 23.2051 9.88189 21.6953 9.34065 21.2887C7.51152 19.8928 6.26214 17.7814 6.01671 15.3741C5.96476 14.9638 5.97235 14.4998 5.97235 14.4998C5.97235 9.77783 9.81734 5.95002 14.5602 5.95002C19.303 5.95002 23.1479 9.77783 23.1479 14.4998C21.5308 13.3687 19.3242 13.1781 17.4138 13.636C16.7574 13.783 16.0976 14.0318 15.4745 14.2813C13.5455 14.9784 11.4521 15.7853 9.3586 15.3825C8.66858 15.2382 8.04587 14.9201 7.43921 14.6005C9.54241 15.7255 11.239 15.464 13.4138 14.7144C14.0631 14.4899 14.7008 14.234 15.3306 13.9606C17.3889 12.945 19.9573 12.4846 22.2035 13.2587C18.0769 8.62297 12.7671 12.2922 8.39485 13.8833C8.23796 13.9357 6.99755 14.3213 6.45095 13.6168C6.45095 13.6168 6.39037 13.9823 6.52551 14.4199C7.17411 16.9379 9.46974 17.6611 9.91693 17.7793C10.3736 17.8867 10.8758 17.9646 11.4306 17.9974C13.3589 18.0807 15.3662 17.352 17.3044 16.536C17.3044 16.536 17.3073 16.5348 17.3116 16.5331C17.323 16.5283 17.3344 16.5236 17.3456 16.5188C17.4725 16.4661 17.8867 16.3006 18.429 16.1482C18.429 16.1482 23.9476 14.2807 27.4481 18.7062C27.8837 17.3824 28.1201 15.9688 28.1201 14.4998C28.12 7.04422 22.0491 1 14.56 1C7.0709 1 1 7.04422 1 14.5C1 21.9558 7.07107 28 14.56 28C19.2576 28 23.3956 25.6207 25.829 22.0077C25.8297 22.0077 25.8302 22.0077 25.8309 22.0077C27.2168 20.1452 29 20.4495 29 20.4495C24.061 15.5667 18.2189 20.1903 15.0001 21.7999Z" fill="url(#paint0_linear_443_5416)"></path>
<defs>
<linearGradient id="paint0_linear_443_5416" x1="6.09091" y1="-0.607142" x2="24.2561" y2="25.833" gradientUnits="userSpaceOnUse">
<stop stop-color="#0094E0"></stop>
<stop offset="1" stop-color="#005EA1"></stop>
</linearGradient>
</defs>
</svg>