<svg width="40" height="40" viewBox="0 0 40 40" fill="none" xmlns="http://www.w3.org/2000/svg">
<path d="M11.611 30.636C12.683 30.636 13.552 29.767 13.552 28.695C13.552 27.6229 12.683 26.7539 11.611 26.7539C10.539 26.7539 9.66992 27.6229 9.66992 28.695C9.66992 29.767 10.539 30.636 11.611 30.636Z" fill="#636CCC"></path>
<path d="M13.4766 28.6953C13.4766 27.6649 12.6417 26.8293 11.6113 26.8291C10.5808 26.8291 9.74512 27.6648 9.74512 28.6953C9.74531 29.7257 10.5809 30.5605 11.6113 30.5605V30.6357L11.4121 30.626C10.4988 30.533 9.77249 29.8069 9.67969 28.8936L9.66992 28.6953C9.66992 27.6233 10.5393 26.7539 11.6113 26.7539L11.8096 26.7637C12.7883 26.8631 13.5518 27.6903 13.5518 28.6953L13.542 28.8936C13.4425 29.8722 12.6161 30.6356 11.6113 30.6357V30.5605C12.6416 30.5604 13.4764 29.7256 13.4766 28.6953Z" fill="#636CCC"></path>
<path d="M19.7243 32.0032C20.7963 32.0032 21.6653 31.1342 21.6653 30.0621C21.6653 28.9901 20.7963 28.1211 19.7243 28.1211C18.6522 28.1211 17.7832 28.9901 17.7832 30.0621C17.7832 31.1342 18.6522 32.0032 19.7243 32.0032Z" fill="#636CCC"></path>
<path d="M21.5898 30.0625C21.5898 29.0321 20.755 28.1965 19.7246 28.1963C18.6941 28.1963 17.8584 29.032 17.8584 30.0625C17.8586 31.0929 18.6942 31.9277 19.7246 31.9277V32.0029L19.5254 31.9932C18.6121 31.9002 17.8858 31.1741 17.793 30.2607L17.7832 30.0625C17.7832 28.9905 18.6526 28.1211 19.7246 28.1211L19.9229 28.1309C20.9016 28.2303 21.665 29.0575 21.665 30.0625L21.6553 30.2607C21.5558 31.2394 20.7294 32.0028 19.7246 32.0029V31.9277C20.7549 31.9275 21.5897 31.0927 21.5898 30.0625Z" fill="#636CCC"></path>
<path d="M27.359 30.6907C28.431 30.6907 29.3001 29.8217 29.3001 28.7496C29.3001 27.6776 28.431 26.8086 27.359 26.8086C26.287 26.8086 25.418 27.6776 25.418 28.7496C25.418 29.8217 26.287 30.6907 27.359 30.6907Z" fill="#636CCC"></path>
<path d="M29.2246 28.75C29.2246 27.7196 28.3897 26.884 27.3594 26.8838C26.3288 26.8838 25.4932 27.7195 25.4932 28.75C25.4934 29.7804 26.329 30.6152 27.3594 30.6152V30.6904L27.1602 30.6807C26.2468 30.5877 25.5205 29.8616 25.4277 28.9482L25.418 28.75C25.418 27.678 26.2874 26.8086 27.3594 26.8086L27.5576 26.8184C28.5364 26.9178 29.2998 27.745 29.2998 28.75L29.29 28.9482C29.1906 29.9269 28.3642 30.6903 27.3594 30.6904V30.6152C28.3896 30.615 29.2244 29.7802 29.2246 28.75Z" fill="#636CCC"></path>
<path d="M15.8453 22.8854C16.1855 22.5231 16.7554 22.5053 17.1178 22.8453C17.48 23.1855 17.4978 23.7554 17.1578 24.1178L12.5992 28.9762C12.2591 29.3385 11.6892 29.3563 11.3268 29.0162C10.9646 28.6761 10.9467 28.1062 11.2867 27.7438L15.8453 22.8854Z" fill="#636CCC"></path>
<path d="M19.4634 25.5864C19.96 25.57 20.3764 25.959 20.3931 26.4556L20.4995 29.6685C20.516 30.1652 20.1271 30.5816 19.6304 30.5982C19.1336 30.6147 18.7172 30.2248 18.7007 29.728L18.5943 26.5161C18.5778 26.0195 18.9668 25.6032 19.4634 25.5864Z" fill="#636CCC"></path>
<path d="M22.9056 24.1078C23.2589 23.7583 23.8284 23.7614 24.1781 24.1146L26.9085 26.8724C27.2582 27.2256 27.2549 27.7952 26.9017 28.1449C26.5485 28.4946 25.9789 28.4923 25.6292 28.139L22.8988 25.3802C22.5493 25.027 22.5524 24.4574 22.9056 24.1078Z" fill="#636CCC"></path>
<path d="M30.752 20.167C30.752 18.7231 29.7467 17.3633 28.0879 16.6689C28.039 16.6485 27.9918 16.6235 27.9473 16.5947L27.7822 16.4883C27.5619 16.3461 27.4138 16.1142 27.3779 15.8545C27.2549 14.9644 26.9288 14.3536 26.4268 13.9512C25.9128 13.5392 25.0944 13.249 23.8066 13.249C23.6306 13.2489 23.4585 13.1975 23.3115 13.1006L22.873 12.8105C22.7372 12.7208 22.628 12.596 22.5576 12.4492C21.8727 11.0213 20.1128 9.90234 17.9297 9.90234C15.0433 9.90242 13.009 11.8118 12.9795 13.8604C12.9666 14.7555 13.0187 15.1637 13.0527 15.3223C13.1668 15.5027 13.2189 15.7223 13.1826 15.9463C13.1119 16.3819 12.7353 16.7021 12.2939 16.7021C10.3656 16.7021 8.80298 18.2651 8.80273 20.1934C8.80273 22.1218 10.3661 23.6855 12.2939 23.6855C12.7908 23.6857 13.1932 24.0881 13.1934 24.585C13.1934 25.082 12.7909 25.4852 12.2939 25.4854C9.37218 25.4854 7.00195 23.1161 7.00195 20.1934C7.00216 17.6445 8.80447 15.5169 11.2041 15.0146C11.1823 14.7056 11.1727 14.3199 11.1797 13.835C11.227 10.5308 14.3548 8.10164 17.9297 8.10156C20.5828 8.10156 22.9654 9.41495 24.0605 11.4385L24.083 11.4521C25.4987 11.4916 26.6717 11.8407 27.5527 12.5469C28.3792 13.2095 28.8578 14.1143 29.0791 15.1426C31.0852 16.092 32.5518 17.9368 32.5518 20.167C32.5517 21.4952 32.0312 22.8975 31.1348 23.9219C30.2236 24.963 28.8623 25.6696 27.2422 25.3906C26.7524 25.3063 26.4236 24.8413 26.5078 24.3516C26.5922 23.8617 27.058 23.5328 27.5479 23.6172C28.4176 23.7669 29.1846 23.4157 29.7793 22.7363C30.3887 22.04 30.7519 21.0591 30.752 20.167ZM12.8955 15.1377C12.8914 15.1338 12.8881 15.1289 12.8838 15.125C12.8812 15.1227 12.8786 15.1205 12.876 15.1182C12.883 15.1241 12.8887 15.1315 12.8955 15.1377ZM12.8428 15.0908C12.8153 15.0692 12.7848 15.0475 12.751 15.0273C12.7462 15.0245 12.7412 15.0223 12.7363 15.0195C12.7739 15.0407 12.8091 15.0649 12.8428 15.0908ZM12.583 14.9502C12.6277 14.9654 12.6702 14.9845 12.7109 15.0059C12.6972 14.9986 12.6834 14.991 12.6689 14.9844C12.6545 14.9777 12.6391 14.9718 12.624 14.9658C12.6166 14.9629 12.6092 14.9598 12.6016 14.957C12.5977 14.9556 12.5937 14.9535 12.5898 14.9521C12.5879 14.9515 12.5849 14.9505 12.584 14.9502H12.583Z" fill="#636CCC"></path>
<path d="M18.6854 17.2136C16.8315 17.5193 15.417 19.1291 15.417 21.0694C15.417 23.2283 17.1672 24.9786 19.3261 24.9786C21.3175 24.9786 22.9596 23.4897 23.203 21.5645L23.2263 21.587L23.4494 16.1875L18.6854 17.2136ZM20.3793 20.1951C20.1119 20.5969 18.3714 22.6048 18.3714 22.6048C18.3714 22.6048 17.7351 23.0465 17.4249 22.5808C17.2754 22.3562 17.3115 22.055 17.4948 21.8567L19.737 19.5528C19.737 19.5528 20.8616 18.6694 21.1831 18.4816C21.5046 18.2938 20.6475 19.7939 20.38 20.1951H20.3793Z" fill="#636CCC"></path>
</svg>