<svg width="40" height="40" viewBox="0 0 40 40" fill="none" xmlns="http://www.w3.org/2000/svg">
<path d="M19.1143 7.20308C19.5063 6.91339 20.0542 6.93339 20.4239 7.2646C22.9924 9.56716 26.1734 11.0501 29.5674 11.5283C30.0797 11.6006 30.4609 12.0392 30.461 12.5566V21.0732C30.461 24.192 29.0332 26.8441 27.0694 28.9677C25.11 31.0864 22.5683 32.7367 20.1846 33.8955C19.8993 34.0341 19.5661 34.0349 19.2803 33.8974C16.8716 32.7381 14.3239 31.0871 12.3672 28.9668C10.4058 26.8412 8.99149 24.1883 9.00004 21.0703V12.5566C9.0001 12.0392 9.38126 11.6006 9.89359 11.5283C13.2876 11.0501 16.4686 9.56719 19.0371 7.2646L19.1143 7.20308ZM19.7305 9.4023C17.2206 11.4498 14.2477 12.8368 11.0772 13.4365V21.0771C11.0706 23.5208 12.171 25.6907 13.8936 27.5576C15.5056 29.3043 17.6219 30.737 19.7276 31.8017C21.8149 30.7367 23.929 29.3049 25.545 27.5576C27.2733 25.6886 28.3838 23.5165 28.3838 21.0732V13.4365C25.2133 12.8368 22.2404 11.4498 19.7305 9.4023ZM16.6143 18.0771C18.2757 16.1387 22.9603 15.8846 24.9219 16C25.0373 17.5 24.7841 21.1238 22.8457 23.6162C20.9074 26.1085 18.1148 25.5769 16.961 25L15.9229 26.039C15.3691 26.3159 14.9992 25.9231 14.8838 25.6923L21.1143 19.1162L15.5762 23.6162C15.3455 22.5777 14.953 20.0156 16.6143 18.0771Z" fill="#EC8913"></path>
</svg>