<svg width="40" height="40" viewBox="0 0 40 40" fill="none" xmlns="http://www.w3.org/2000/svg">
<path d="M27.4551 8.65234C28.1445 8.65242 30.0192 9.23142 32.0039 11.5469C33.6776 13.4995 32.9176 15.391 32.0605 16.4326C31.8093 15.8466 31.2993 14.8646 30.4883 13.7832C30.3513 13.6006 30.0919 13.5633 29.9092 13.7002C29.7267 13.8372 29.6893 14.0967 29.8262 14.2793C30.7261 15.4793 31.2217 16.5299 31.3857 16.9668C25.979 18.0911 26.502 11.9199 27.4551 8.65234Z" fill="#0C8AE5"></path>
<path d="M13.9548 20.6867L20.9471 12.9583C21.1099 12.7784 21.4074 12.9149 21.3773 13.1555L20.6479 18.9912H25.0679C25.2803 18.9912 25.3945 19.2407 25.2557 19.4015L18.2889 27.4682C18.1284 27.654 17.8245 27.5189 17.8549 27.2753L18.5803 21.4722L14.1181 21.1004C13.9134 21.0833 13.8169 20.839 13.9548 20.6867Z" fill="#0C8AE5"></path>
<path d="M32.6377 19.8188C32.6377 26.8985 26.8985 32.6377 19.8188 32.6377C12.7392 32.6377 7 26.8985 7 19.8188C7 12.7392 12.7392 7 19.8188 7C21.7385 7 23.5596 7.42197 25.1945 8.17821" stroke="#0C8AE5" stroke-width="1.65404" stroke-linecap="round"></path>
</svg>