<svg width="50" height="50" viewBox="0 0 50 50" fill="none" xmlns="http://www.w3.org/2000/svg">
<path d="M12.8024 37.0434C13.1567 37.0434 13.5059 37.0252 13.855 36.9964C13.5216 36.9964 13.2014 36.9571 12.8943 36.8864C11.7681 36.6247 10.8494 35.9183 10.2798 34.9997C9.54479 33.8117 9.38991 32.2651 10.1223 30.8547L18.6744 14.3662L21.2549 9.3917C21.4438 9.03057 21.6722 8.71133 21.9294 8.43656C24.2158 4.96146 28.1586 2.6639 32.6393 2.6639C35.4507 2.6639 38.0495 3.56932 40.1626 5.10276C35.9547 1.90241 30.7022 0 25.0032 0C11.3376 0 0.236613 10.9278 0.00561523 24.4959C0.121114 31.4435 5.80419 37.0434 12.7998 37.0434H12.8024Z" fill="url(#paint0_linear_36_2)"/>
<path d="M41.073 5.83287C40.7737 5.58167 40.4692 5.33831 40.1568 5.1028C38.0437 3.56935 35.445 2.66394 32.6337 2.66394C28.1528 2.66394 24.2127 4.96148 21.9238 8.4366C23.8243 6.40073 27.3654 6.71997 28.7513 9.39172L39.6319 30.368C40.6714 32.2129 41.2672 34.3402 41.2672 36.6064C41.2672 42.0912 37.7943 46.7675 32.9225 48.5704C42.8475 45.268 50.0032 35.9287 50.0032 24.9224C50.0032 17.2579 46.5303 10.4018 41.0703 5.83026" fill="url(#paint1_linear_36_2)"/>
<path d="M39.6345 30.3679L39.8865 30.8547C40.6189 32.2651 40.464 33.8116 39.729 34.9996C39.0019 36.172 37.7078 36.9962 36.138 36.9962C35.327 36.9962 34.5421 36.7189 33.9094 36.2112L26.0582 29.9676C25.4177 29.4572 24.5068 29.4599 23.869 29.9727L16.2119 36.1301C16.2119 36.1301 16.1857 36.1432 16.1751 36.1485L16.1016 36.2086C15.6738 36.5539 15.1724 36.7868 14.6421 36.9046C14.3901 36.9596 14.1329 36.991 13.873 36.991C13.8678 36.991 13.8599 36.991 13.8546 36.991C13.5081 37.0199 13.1564 37.0381 12.802 37.0381C5.80383 37.0434 0.120749 31.446 0.00524995 24.4957C0.00524995 24.6397 0 24.7809 0 24.9249C0 38.6919 11.1929 49.8499 25.0029 49.8499C27.1921 49.8499 29.3157 49.5674 31.3369 49.0413C31.8724 48.9027 32.4028 48.7457 32.9225 48.5704C37.7944 46.7673 41.2672 42.0912 41.2672 36.6063C41.2672 34.3403 40.6714 32.2127 39.632 30.3679H39.6345Z" fill="url(#paint2_linear_36_2)"/>
<path d="M12.8024 37.0434C13.1567 37.0434 13.5059 37.0252 13.855 36.9964C13.5216 36.9964 13.2014 36.9571 12.8943 36.8864C11.7681 36.6247 10.8494 35.9183 10.2798 34.9997C9.54479 33.8117 9.38991 32.2651 10.1223 30.8547L18.6744 14.3662L21.2549 9.3917C21.4438 9.03057 21.6722 8.71133 21.9294 8.43656C24.2158 4.96146 28.1586 2.6639 32.6393 2.6639C35.4507 2.6639 38.0495 3.56932 40.1626 5.10276C35.9547 1.90241 30.7022 0 25.0032 0C11.3376 0 0.236613 10.9278 0.00561523 24.4959C0.121114 31.4435 5.80419 37.0434 12.7998 37.0434H12.8024Z" fill="url(#paint3_linear_36_2)"/>
<defs>
<linearGradient id="paint0_linear_36_2" x1="12.1908" y1="29.4311" x2="25.9324" y2="-0.621277" gradientUnits="userSpaceOnUse">
<stop stop-color="#E0C516"/>
<stop offset="1" stop-color="#2DB3E8"/>
</linearGradient>
<linearGradient id="paint1_linear_36_2" x1="25.4334" y1="9.28182" x2="44.2549" y2="37.2209" gradientUnits="userSpaceOnUse">
<stop stop-color="#0E4CC5"/>
<stop offset="0.56" stop-color="#AC4DA9"/>
<stop offset="1" stop-color="#FFA852"/>
</linearGradient>
<linearGradient id="paint2_linear_36_2" x1="36.4504" y1="40.9293" x2="1.92162" y2="35.3872" gradientUnits="userSpaceOnUse">
<stop stop-color="#C03935"/>
<stop offset="1" stop-color="#FFAC4B"/>
</linearGradient>
<linearGradient id="paint3_linear_36_2" x1="12.2643" y1="37.8808" x2="18.3093" y2="18.5894" gradientUnits="userSpaceOnUse">
<stop stop-color="#C8503F"/>
<stop offset="1" stop-color="#E0C516" stop-opacity="0"/>
</linearGradient>
</defs>
</svg>
