<svg width="32" height="32" viewBox="0 0 32 32" fill="none" xmlns="http://www.w3.org/2000/svg">
<rect x="0.5" y="0.5" width="31" height="31" rx="11.5" fill="#000D2A" stroke="#2F5EAC"/>
<g filter="url(#filter0_d_125_27)">
<path d="M14.6651 10.1002C13.6718 9.6573 12.7062 10.7152 12.4095 11.0836L7.18999 21.2187C6.75787 22.0578 7.08779 23.0879 7.92692 23.52C8.76605 23.9522 9.79615 23.6222 10.2283 22.7831L16 11.5758C16 11.5758 15.5356 10.4884 14.6651 10.1002Z" fill="url(#paint0_linear_125_27)"/>
<path d="M24.81 21.2187L18.1982 8.38063C18.1677 8.32056 18.1327 8.26408 18.096 8.21029C17.6791 7.48681 16.8983 7 16.0035 7C15.1088 7 14.3692 7.4617 13.9443 8.15381C13.8923 8.22553 13.8429 8.29994 13.8017 8.38152L12.4094 11.0854C12.7062 10.7169 13.6717 9.65815 14.665 10.1019C15.5356 10.4901 15.9999 11.5776 15.9999 11.5776L21.7717 22.7849C22.2038 23.624 23.2339 23.9539 24.073 23.5218C24.9122 23.0897 25.2421 22.0596 24.81 21.2205V21.2187Z" fill="url(#paint1_linear_125_27)"/>
<path d="M16.0032 7V6.9H16.0032L16.0032 7ZM18.096 8.20996L18.0091 8.26004L18.0134 8.26638L18.096 8.20996ZM18.1985 8.38086L18.1093 8.42611L18.1096 8.42664L18.1985 8.38086ZM24.8099 21.2188H24.9099V21.1945L24.8988 21.173L24.8099 21.2188ZM24.8099 21.2207H24.7099V21.2449L24.7209 21.2665L24.8099 21.2207ZM24.0725 23.5215L24.1183 23.6104L24.1183 23.6104L24.0725 23.5215ZM21.7718 22.7852L21.6829 22.8309L21.6829 22.831L21.7718 22.7852ZM16.0003 11.5771H15.9003V11.6014L15.9114 11.6229L16.0003 11.5771ZM16.0003 11.5762H16.1003L15.9114 11.5304L16.0003 11.5762ZM10.2278 22.7832L10.3167 22.829L10.3167 22.829L10.2278 22.7832ZM7.92704 23.5205L7.88126 23.6094L7.88127 23.6094L7.92704 23.5205ZM7.18973 21.2188L7.10083 21.173L7.10083 21.173L7.18973 21.2188ZM12.4095 11.084L12.4984 11.1298L12.4989 11.1287L12.4095 11.084ZM12.4104 11.082L12.3215 11.0362L12.321 11.0373L12.4104 11.082ZM13.802 8.38184L13.8909 8.42765L13.8913 8.42695L13.802 8.38184ZM13.9446 8.1543L14.0258 8.21316L14.0298 8.20662L13.9446 8.1543ZM16.0032 7V7.1C16.8607 7.1 17.6096 7.56627 18.0093 8.2599L18.096 8.20996L18.1826 8.16003C17.7486 7.40695 16.935 6.9 16.0032 6.9V7ZM18.096 8.20996L18.0134 8.26638C18.0485 8.3177 18.0814 8.37094 18.1093 8.42611L18.1985 8.38086L18.2877 8.33561C18.2547 8.27064 18.217 8.2098 18.1785 8.15354L18.096 8.20996ZM18.1985 8.38086L18.1096 8.42664L24.7209 21.2645L24.8099 21.2188L24.8988 21.173L18.2874 8.33508L18.1985 8.38086ZM24.8099 21.2188H24.7099V21.2207H24.8099H24.9099V21.2188H24.8099ZM24.8099 21.2207L24.7209 21.2665C25.1276 22.0564 24.8168 23.0257 24.0268 23.4326L24.0725 23.5215L24.1183 23.6104C25.0065 23.153 25.3561 22.0632 24.8988 21.1749L24.8099 21.2207ZM24.0725 23.5215L24.0268 23.4326C23.2368 23.8392 22.2675 23.5291 21.8607 22.7394L21.7718 22.7852L21.6829 22.831C22.1403 23.7189 23.2302 24.0675 24.1183 23.6104L24.0725 23.5215ZM21.7718 22.7852L21.8607 22.7394L16.0892 11.5314L16.0003 11.5771L15.9114 11.6229L21.6829 22.8309L21.7718 22.7852ZM16.0003 11.5771H16.1003V11.5762H16.0003H15.9003V11.5771H16.0003ZM16.0003 11.5762L15.9114 11.5304L10.1389 22.7374L10.2278 22.7832L10.3167 22.829L16.0892 11.622L16.0003 11.5762ZM10.2278 22.7832L10.1389 22.7374C9.73204 23.5272 8.76265 23.8381 7.9728 23.4316L7.92704 23.5205L7.88127 23.6094C8.76942 24.0666 9.85932 23.7169 10.3167 22.829L10.2278 22.7832ZM7.92704 23.5205L7.97282 23.4316C7.18281 23.0248 6.87192 22.0545 7.27864 21.2645L7.18973 21.2188L7.10083 21.173C6.64352 22.0612 6.99309 23.152 7.88126 23.6094L7.92704 23.5205ZM7.18973 21.2188L7.27864 21.2645L12.4984 11.1298L12.4095 11.084L12.3206 11.0382L7.10083 21.173L7.18973 21.2188ZM12.4095 11.084L12.4989 11.1287L12.4999 11.1268L12.4104 11.082L12.321 11.0373L12.32 11.0393L12.4095 11.084ZM12.4104 11.082L12.4993 11.1278L13.8909 8.42765L13.802 8.38184L13.7131 8.33602L12.3215 11.0362L12.4104 11.082ZM13.802 8.38184L13.8913 8.42695C13.9291 8.35214 13.9751 8.28265 14.0256 8.21299L13.9446 8.1543L13.8637 8.0956C13.8102 8.16931 13.7574 8.24847 13.7128 8.33672L13.802 8.38184ZM13.9446 8.1543L14.0298 8.20662C14.4377 7.54239 15.1455 7.1001 16.0032 7.1L16.0032 7L16.0032 6.9C15.0718 6.90011 14.3014 7.38214 13.8594 8.10197L13.9446 8.1543Z" fill="#1CDAFD" fill-opacity="0.4"/>
<g filter="url(#filter1_d_125_27)">
<path d="M11.4152 19.3414H9.97001C9.66897 19.3414 9.42493 19.5855 9.42493 19.8865V19.8874C9.42493 20.1884 9.66897 20.4325 9.97001 20.4325H11.4152C11.7162 20.4325 11.9603 20.1884 11.9603 19.8874V19.8865C11.9603 19.5855 11.7162 19.3414 11.4152 19.3414Z" fill="#010D26"/>
</g>
<path d="M17.7152 23.2071C17.7152 23.2071 17.708 23.2071 17.7044 23.2071C17.4722 23.2026 17.2687 23.0493 17.2015 22.827L15.6666 17.8101L14.2188 21.4616C14.1453 21.6463 13.9767 21.7754 13.7795 21.7978C13.5823 21.8202 13.3886 21.7323 13.2757 21.5683L12.4885 20.4243H9.95856C9.66182 20.4243 9.42065 20.1832 9.42065 19.8864C9.42065 19.5897 9.66182 19.3485 9.95856 19.3485H12.7718C12.9484 19.3485 13.1143 19.4355 13.2147 19.5816L13.5903 20.1276L15.2318 15.9866C15.3161 15.7741 15.525 15.6379 15.7536 15.6477C15.9822 15.6567 16.1794 15.8091 16.2467 16.0278L17.7519 20.9461L18.1715 19.7519C18.2468 19.5368 18.4503 19.3924 18.6789 19.3924H22.3062C22.6029 19.3924 22.8441 19.6336 22.8441 19.9304C22.8441 20.2271 22.6029 20.4683 22.3062 20.4683H19.0599L18.2244 22.8476C18.1482 23.0637 17.9447 23.2071 17.717 23.2071H17.7152Z" fill="url(#paint2_linear_125_27)"/>
</g>
<defs>
<filter id="filter0_d_125_27" x="4.8999" y="4.90002" width="22.1998" height="20.9115" filterUnits="userSpaceOnUse" color-interpolation-filters="sRGB">
<feFlood flood-opacity="0" result="BackgroundImageFix"/>
<feColorMatrix in="SourceAlpha" type="matrix" values="0 0 0 0 0 0 0 0 0 0 0 0 0 0 0 0 0 0 127 0" result="hardAlpha"/>
<feOffset/>
<feGaussianBlur stdDeviation="1"/>
<feComposite in2="hardAlpha" operator="out"/>
<feColorMatrix type="matrix" values="0 0 0 0 0.105882 0 0 0 0 0.866667 0 0 0 0 0.992157 0 0 0 0.2 0"/>
<feBlend mode="normal" in2="BackgroundImageFix" result="effect1_dropShadow_125_27"/>
<feBlend mode="normal" in="SourceGraphic" in2="effect1_dropShadow_125_27" result="shape"/>
</filter>
<filter id="filter1_d_125_27" x="7.63191" y="17.5484" width="6.12132" height="4.67711" filterUnits="userSpaceOnUse" color-interpolation-filters="sRGB">
<feFlood flood-opacity="0" result="BackgroundImageFix"/>
<feColorMatrix in="SourceAlpha" type="matrix" values="0 0 0 0 0 0 0 0 0 0 0 0 0 0 0 0 0 0 127 0" result="hardAlpha"/>
<feOffset/>
<feGaussianBlur stdDeviation="0.896511"/>
<feColorMatrix type="matrix" values="0 0 0 0 0.0627451 0 0 0 0 0.152941 0 0 0 0 0.266667 0 0 0 0.8 0"/>
<feBlend mode="normal" in2="BackgroundImageFix" result="effect1_dropShadow_125_27"/>
<feBlend mode="normal" in="SourceGraphic" in2="effect1_dropShadow_125_27" result="shape"/>
</filter>
<linearGradient id="paint0_linear_125_27" x1="8.04436" y1="23.2358" x2="14.3217" y2="11.1554" gradientUnits="userSpaceOnUse">
<stop stop-color="#1DAAFE"/>
<stop offset="1" stop-color="#0D4C8B"/>
</linearGradient>
<linearGradient id="paint1_linear_125_27" x1="14.4866" y1="8.48014" x2="23.9941" y2="22.9005" gradientUnits="userSpaceOnUse">
<stop stop-color="#7DF8FC"/>
<stop offset="1" stop-color="#6521FD"/>
</linearGradient>
<linearGradient id="paint2_linear_125_27" x1="10.4113" y1="19.3055" x2="22.7285" y2="19.5422" gradientUnits="userSpaceOnUse">
<stop stop-color="#18E4FD"/>
<stop offset="0.82" stop-color="#6521FD"/>
<stop offset="1" stop-color="#6521FD" stop-opacity="0"/>
</linearGradient>
</defs>
</svg>
