<svg width="26" height="26" viewBox="0 0 26 26" fill="none" xmlns="http://www.w3.org/2000/svg">
<path d="M10.3867 0.599609H25.4004V15.6133C25.4002 21.0182 21.0182 25.4002 15.6133 25.4004H0.599609V10.3867C0.599848 4.98177 4.98177 0.599849 10.3867 0.599609Z" fill="#1C2C07" stroke="#5A9534" stroke-width="1.2"/>
<g clip-path="url(#clip0_13_112)">
<g filter="url(#filter0_d_13_112)">
<path d="M13.0124 8.7658C12.8378 8.40041 12.6677 7.52712 12.3763 7.34215C12.0153 7.1117 11.1158 7.10412 10.1467 8.35644C10.1364 8.37009 10.126 8.38373 10.1142 8.39738L6.21733 16.1221C5.88445 16.7831 5.95399 17.5078 6.28982 18.0643C6.5502 18.4948 6.96741 18.8254 7.48225 18.9482C7.62428 18.9815 7.77223 18.9997 7.92757 18.9997C8.29743 18.9997 8.65546 18.8708 8.94247 18.6328L12.9947 15.2867C12.4783 15.0092 11.894 14.8531 11.2756 14.8531C10.7311 14.8531 10.2118 14.9744 9.74433 15.1927L9.73841 15.1972H9.72509L13.0021 8.86738L13.0139 8.7658H13.0124Z" fill="url(#paint0_linear_13_112)"/>
<path d="M13.0362 15.2535L8.99288 18.5966C8.15699 19.0818 7.09475 18.304 6.67459 17.9477C6.2559 17.5914 6.37722 17.6884 6.34911 17.0213C6.31952 16.3391 6.58434 15.4157 6.58434 15.4157L9.74148 15.1868C11.4887 14.2529 13.0362 15.2535 13.0362 15.2535Z" fill="url(#paint1_linear_13_112)"/>
<path d="M19.7824 16.122L14.7094 6.0655C13.9919 4.64337 12.008 4.64337 11.2904 6.0655L10.1143 8.3958C10.1246 8.38216 10.135 8.36851 10.1468 8.35487C10.5108 7.89245 11.0966 7.32844 11.8097 7.49522C12.2743 7.60438 12.6249 8.1608 12.7048 8.30332C12.8867 8.63232 13.0672 8.99771 13.1752 9.20391L16.2762 15.1957H16.2628L15.5054 14.5665C14.0451 13.3521 11.9547 13.3521 10.4945 14.5665L9.74292 15.1911C10.2119 14.9728 10.7297 14.8515 11.2741 14.8515C11.7224 14.8515 12.1041 14.9319 12.397 15.0244C12.7151 15.1259 13.011 15.2897 13.2714 15.505L14.1147 16.2009L17.0573 18.6312C17.3458 18.8693 17.7038 18.9981 18.0722 18.9981C18.7883 18.9981 19.3786 18.6115 19.7099 18.0627C20.0458 17.5063 20.1153 16.7816 19.7824 16.1205V16.122Z" fill="#8EE63B"/>
</g>
</g>
<defs>
<filter id="filter0_d_13_112" x="5.36251" y="4.36141" width="15.2747" height="15.2758" filterUnits="userSpaceOnUse" color-interpolation-filters="sRGB">
<feFlood flood-opacity="0" result="BackgroundImageFix"/>
<feColorMatrix in="SourceAlpha" type="matrix" values="0 0 0 0 0 0 0 0 0 0 0 0 0 0 0 0 0 0 127 0" result="hardAlpha"/>
<feOffset/>
<feGaussianBlur stdDeviation="0.318747"/>
<feColorMatrix type="matrix" values="0 0 0 0 0.0514969 0 0 0 0 0.25231 0 0 0 0 0.0832042 0 0 0 1 0"/>
<feBlend mode="normal" in2="BackgroundImageFix" result="effect1_dropShadow_13_112"/>
<feBlend mode="normal" in="SourceGraphic" in2="effect1_dropShadow_13_112" result="shape"/>
</filter>
<linearGradient id="paint0_linear_13_112" x1="0.250721" y1="4.36901" x2="21.2424" y2="22.8198" gradientUnits="userSpaceOnUse">
<stop stop-color="#48751D"/>
<stop offset="1" stop-color="#8EE63B"/>
</linearGradient>
<linearGradient id="paint1_linear_13_112" x1="10.567" y1="13.557" x2="9.60366" y2="15.7123" gradientUnits="userSpaceOnUse">
<stop stop-color="#407410"/>
<stop offset="1" stop-color="#407410" stop-opacity="0"/>
</linearGradient>
<clipPath id="clip0_13_112">
<rect width="14" height="14" fill="white" transform="translate(6 5)"/>
</clipPath>
</defs>
</svg>
