<svg width="62" height="33" viewBox="0 0 62 33" fill="none" xmlns="http://www.w3.org/2000/svg">
<path d="M33.3045 3.59999C33.0941 3.61502 34.7621 -0.832884 29.3775 0.138842C15.1472 2.7034 5.09438 12.1802 2.97561 14.895C0.856849 17.6049 -5.62967 28.925 11.5108 27.6026C28.6512 26.2803 38.123 16.4428 39.4354 14.6346C44.5745 7.55201 42.5609 2.85867 33.3045 3.605V3.59999ZM29.7983 1.28588C29.7983 1.28588 33.1642 0.514509 31.7818 3.84542C31.7818 3.84542 23.3969 4.64184 11.7061 11.5641C11.7061 11.5641 17.7919 3.11413 29.7932 1.28588H29.7983ZM25.3353 23.0946C17.2059 26.125 9.48718 25.559 8.0947 21.8173C6.70223 18.0807 12.1569 12.596 20.2864 9.56057C28.4158 6.52518 36.1345 7.0962 37.527 10.8328C38.9245 14.5695 33.4648 20.0592 25.3353 23.0896V23.0946Z" fill="#DF134C"/>
<path d="M42.2503 32.9973L45.8517 12.571H51.1662L50.7805 14.7499C51.6771 13.8333 52.4635 13.2071 53.1347 12.8816C54.0413 12.4458 54.998 12.2254 55.9998 12.2254C57.9833 12.2254 59.3808 12.9817 60.1972 14.4944C61.0137 16.0121 61.229 17.8855 60.8333 20.1144C60.3976 22.5788 59.4759 24.4571 58.0634 25.7544C56.6509 27.0517 55.0481 27.6979 53.2399 27.6979C52.3633 27.6979 51.5919 27.5476 50.9257 27.2471C50.2596 26.9465 49.6885 26.5058 49.2277 25.9147L47.9805 32.9873H42.2503V32.9973ZM50.2295 19.9942C50.0241 21.1613 50.1193 22.0278 50.51 22.5938C50.9007 23.1598 51.4767 23.4403 52.2331 23.4403C52.8942 23.4403 53.4953 23.1698 54.0363 22.6289C54.5822 22.0879 54.9629 21.1663 55.1933 19.864C55.4037 18.6668 55.3236 17.7903 54.9579 17.2243C54.5923 16.6633 54.0713 16.3828 53.4051 16.3828C52.6789 16.3828 52.0227 16.6683 51.4417 17.2343C50.8556 17.8003 50.4549 18.7169 50.2295 19.9892V19.9942Z" fill="white"/>
<path d="M19.9958 12.561H25.4505L26.2018 21.7423L30.805 12.561H35.864L37.3466 21.8174L41.3487 12.561H46.7684L38.7591 27.2621H33.7452L32.3277 18.4164L27.8898 27.2621H22.8559L19.9958 12.561Z" fill="white"/>
</svg>
