<svg width="141" height="26" viewBox="0 0 141 26" fill="none" xmlns="http://www.w3.org/2000/svg">
<g clip-path="url(#clip0_149_23)">
<path d="M25.6608 2.81877C25.4987 2.83053 26.7839 -0.652143 22.6351 0.108712C11.6708 2.11674 3.92517 9.53704 2.29268 11.6627C0.660195 13.7845 -4.33762 22.6481 8.86895 21.6127C22.0755 20.5773 29.3735 12.8746 30.3846 11.4588C34.3443 5.91317 32.7928 2.23832 25.6608 2.82269V2.81877ZM22.9593 1.00684C22.9593 1.00684 25.5528 0.402857 24.4876 3.01094C24.4876 3.01094 18.0271 3.63453 9.01947 9.05464C9.01947 9.05464 13.7085 2.43834 22.9554 1.00684H22.9593ZM19.5207 18.0829C13.257 20.4557 7.30979 20.0125 6.2369 17.0828C5.16401 14.1571 9.36681 9.86256 15.6305 7.48587C21.8941 5.10918 27.8413 5.55628 28.9142 8.48204C29.991 11.4078 25.7843 15.7062 19.5207 18.079V18.0829Z" fill="#DD0041"/>
<path d="M32.5537 25.8373L35.3286 9.84361H39.4233L39.1261 11.5497C39.8169 10.8319 40.4229 10.3417 40.94 10.0868C41.6385 9.74556 42.3757 9.573 43.1475 9.573C44.6758 9.573 45.7526 10.1652 46.3816 11.3496C47.0107 12.538 47.1766 14.0048 46.8718 15.75C46.536 17.6796 45.8259 19.1504 44.7376 20.1661C43.6492 21.1819 42.4143 21.6879 41.021 21.6879C40.3457 21.6879 39.7513 21.5702 39.238 21.3349C38.7248 21.0996 38.2848 20.7544 37.9297 20.2916L36.9688 25.8294H32.5537V25.8373ZM38.7016 15.6559C38.5434 16.5697 38.6167 17.2482 38.9177 17.6914C39.2187 18.1346 39.6626 18.3542 40.2453 18.3542C40.7548 18.3542 41.2179 18.1424 41.6347 17.7189C42.0553 17.2953 42.3486 16.5736 42.5262 15.5539C42.6883 14.6166 42.6265 13.9303 42.3448 13.4871C42.0631 13.0478 41.6617 12.8282 41.1484 12.8282C40.5888 12.8282 40.0832 13.0518 39.6355 13.4949C39.184 13.9381 38.8753 14.6558 38.7016 15.652V15.6559Z" fill="white"/>
<path d="M15.4067 9.83557H19.6095L20.1884 17.0245L23.7351 9.83557H27.633L28.7754 17.0833L31.859 9.83557H36.0348L29.8637 21.3464H26.0006L24.9084 14.4203L21.489 21.3464H17.6104L15.4067 9.83557Z" fill="white"/>
<path d="M75.2493 10.9745H66.0333V12.9276H73.5435V15.0494H65.3154V17.0339H69.8115V18.0967H66.0641V20.0812H73.5744V22.3834H75.2802V18.1006H71.5173V17.0378H76.0134V15.0533H75.2493V10.9784V10.9745Z" fill="white"/>
<path d="M98.958 10.9745H97.2522V11.9589H92.073V10.9745H90.3672V17.328H98.958V10.9745ZM97.2522 14.0728V15.1945H92.073V14.0728H97.2522Z" fill="white"/>
<path d="M89.2974 17.9548V20.0256H93.7935V22.2297H95.5031V20.0256H99.9992V17.9548H89.2974Z" fill="white"/>
<path d="M107.313 10.9745H105.603V12.3079H103.427V10.9745H101.721V17.277H107.313V10.9745ZM105.603 14.2297V15.3553H103.427V14.2297H105.603Z" fill="white"/>
<path d="M103.762 21.8501H110.828V17.7517H102.052V19.6107H109.123V19.9911H102.052V24.1209H111.068V22.2619H103.758V21.8501H103.762Z" fill="white"/>
<path d="M110.829 10.9945H109.123V17.2814H110.829V15.0106H112.018V13.0261H110.829V10.9945Z" fill="white"/>
<path d="M115.634 18.108H113.924V21.6966H123.376V19.7121H115.634V18.108Z" fill="white"/>
<path d="M121.666 10.9745V13.0257H119.918V15.0102H121.666V17.3123H123.376V10.9745H121.666Z" fill="white"/>
<path d="M114.449 17.4014C114.449 17.4014 116.398 15.2561 116.537 15.1032C116.679 15.26 118.64 17.4014 118.64 17.4014L119.825 15.6836C119.825 15.6836 117.443 13.2795 117.131 12.9618H119.373V10.9773H113.681V12.9618H115.923C115.614 13.2795 113.275 15.6679 113.275 15.6679L114.445 17.4053L114.449 17.4014Z" fill="white"/>
<path d="M131.989 17.4014C131.989 17.4014 133.938 15.2561 134.077 15.1032C134.22 15.26 136.18 17.4014 136.18 17.4014L137.365 15.6836C137.365 15.6836 134.984 13.2795 134.671 12.9618H136.914V10.9773H131.225V12.9618H133.467C133.159 13.2795 130.82 15.6679 130.82 15.6679L131.989 17.4053V17.4014Z" fill="white"/>
<path d="M128.216 11.061H127.185V22.1013H128.216V11.061Z" fill="white"/>
<path d="M129.562 19.9205H133.445V22.1246H134.742V19.9205H138.628V18.0615H129.562V19.9205Z" fill="white"/>
<path d="M141.005 11.061H139.971V22.1013H141.005V11.061Z" fill="white"/>
<path d="M59.3959 14.5479C59.3959 13.8067 59.1257 13.1595 58.5854 12.6105C58.0451 12.0614 57.4122 11.7869 56.6789 11.7869C55.8955 11.7869 55.2317 12.0614 54.6952 12.6105C54.1549 13.1321 53.8848 13.7753 53.8848 14.5479C53.8848 15.3205 54.1549 15.9363 54.6952 16.4853C55.2355 17.0619 55.8955 17.3521 56.6789 17.3521C57.4083 17.3521 58.0412 17.0658 58.5854 16.4853C59.1257 15.9363 59.3959 15.2892 59.3959 14.5479ZM57.389 15.3048C57.1806 15.5245 56.9375 15.6382 56.6558 15.6382C56.3547 15.6382 56.1 15.5284 55.8916 15.3048C55.6832 15.0931 55.579 14.846 55.579 14.5597C55.579 14.2734 55.6832 14.0145 55.8916 13.8145C56.1 13.6027 56.3547 13.4968 56.6558 13.4968C56.9375 13.4968 57.1806 13.6027 57.389 13.8145C57.5974 14.0263 57.7016 14.2734 57.7016 14.5597C57.7016 14.846 57.5974 15.0931 57.389 15.3048Z" fill="white"/>
<path d="M55.6829 18.0925H53.9771V21.6811H63.1661V19.6966H55.6867V18.0925H55.6829Z" fill="white"/>
<path d="M62.8718 13.014V10.9824H61.166V17.2967H62.8718V14.9946H64.0566V13.0101H62.8718V13.014Z" fill="white"/>
<path d="M59.5533 10.9705H57.4461V9.57434H55.7403V10.9705H53.6177V13.0492H59.5572V10.9705H59.5533Z" fill="white"/>
<path d="M85.6897 10.9866V13.0181H83.9414V15.0026H85.6897V21.7013H87.3955V10.9905H85.6897V10.9866Z" fill="white"/>
<path d="M80.2552 10.9751L77.3145 16.9953L78.9238 18.1091L80.6103 14.6813L82.3123 18.1091L83.9409 16.9953L80.9962 10.9751H80.2552Z" fill="white"/>
</g>
<defs>
<clipPath id="clip0_149_23">
<rect width="141" height="25.8377" fill="white"/>
</clipPath>
</defs>
</svg>
